<svg xmlns="http://www.w3.org/2000/svg" xmlns:xlink="http://www.w3.org/1999/xlink" width="1760" height="1360"><g transform="translate(0 0)"><path d="M0 0h1760v1360H0z" fill="#fff"/><path d="M1000 465c0-2.76 2.24-5 5-5h110c2.76 0 5 2.24 5 5v50c0 2.76-2.24 5-5 5h-110c-2.76 0-5-2.24-5-5z" stroke="#000" stroke-width="2" fill="#fff"/><use xlink:href="#a" transform="matrix(1,0,0,1,1000,460) translate(37.205 33.15)"/><path d="M860 490h139" stroke="#000" stroke-width="2" fill="none"/><path d="M860 491h-.06l.06-1-.04-1h.04zM999 490l-14.27 4.64v-9.28z"/><path d="M1000 489.27v1.46L983.73 496v-12zm-14.27 4l10.03-3.27-10.03-3.26z"/><use xlink:href="#b" transform="matrix(1,0,0,1,877.226042489575,464.40000000000003) translate(0 14.4)"/><path d="M1260 465c0-2.76 2.24-5 5-5h110c2.76 0 5 2.24 5 5v50c0 2.76-2.24 5-5 5h-110c-2.76 0-5-2.24-5-5z" stroke="#000" stroke-width="2" fill="#fff"/><use xlink:href="#c" transform="matrix(1,0,0,1,1260,460) translate(9.705 33.15)"/><use xlink:href="#d" transform="matrix(1,0,0,1,1260,460) translate(64.705 33.15)"/><path d="M1120 490h140" stroke="#000" stroke-width="2" fill="none"/><path d="M1120 491v-2zM1260 490l-14.27 4.64v-9.28z"/><path d="M1260 488.95v2.1l-15.27 4.96v-12zm-13.27 4.3l10.03-3.25-10.03-3.26z"/><use xlink:href="#e" transform="matrix(1,0,0,1,1133.9583333333333,464.40000000000003) translate(0 14.4)"/><path d="M1540 465c0-2.76 2.24-5 5-5h110c2.76 0 5 2.24 5 5v50c0 2.76-2.24 5-5 5h-110c-2.76 0-5-2.24-5-5z" stroke="#000" stroke-width="2" fill="#fff"/><use xlink:href="#c" transform="matrix(1,0,0,1,1540,460) translate(9.705 19.41)"/><use xlink:href="#f" transform="matrix(1,0,0,1,1540,460) translate(64.705 19.41)"/><use xlink:href="#g" transform="matrix(1,0,0,1,1540,460) translate(24.055 41.01)"/><use xlink:href="#h" transform="matrix(1,0,0,1,1540,460) translate(60.955000000000005 41.01)"/><path d="M1380 490h159" stroke="#000" stroke-width="2" fill="none"/><path d="M1380 491v-2zM1539 490l-14.27 4.64v-9.28z"/><path d="M1540 489.27v1.46l-16.27 5.28v-12zm-14.27 4l10.03-3.27-10.03-3.26z"/><use xlink:href="#i" transform="matrix(1,0,0,1,1400.583333333333,464.40000000000003) translate(0 14.4)"/><path d="M860 490c0 22.1-17.9 40-40 40s-40-17.9-40-40 17.9-40 40-40 40 17.9 40 40z" stroke="#000" stroke-width="2" fill="#fff"/><use xlink:href="#j" transform="matrix(1,0,0,1,780,450) translate(22.53 44.4)"/><path d="M410 665c0-2.76 2.24-5 5-5h110c2.76 0 5 2.24 5 5v50c0 2.76-2.24 5-5 5H415c-2.76 0-5-2.24-5-5z" stroke="#000" stroke-width="2" fill="#fff"/><use xlink:href="#k" transform="matrix(1,0,0,1,410,660) translate(12.58 33.15)"/><use xlink:href="#l" transform="matrix(1,0,0,1,410,660) translate(66.53 33.15)"/><path d="M242 690c0 22.1-17.9 40-40 40s-40-17.9-40-40 17.9-40 40-40 40 17.9 40 40z" stroke="#000" stroke-width="2" fill="#fff"/><use xlink:href="#j" transform="matrix(1,0,0,1,162,650) translate(22.53 44.4)"/><path d="M242 690h168" stroke="#000" stroke-width="2" fill="none"/><path d="M242 691h-.06l.06-1-.04-1h.04zM410 690l-14.27 4.64v-9.28z"/><path d="M410 688.95v2.1L394.73 696v-12zm-13.27 4.3l10.03-3.25-10.03-3.26z"/><use xlink:href="#m" transform="matrix(1,0,0,1,247.26666666666674,664.4000000000001) translate(0 14.4)"/><path d="M730 665c0-2.76 2.24-5 5-5h110c2.76 0 5 2.24 5 5v50c0 2.76-2.24 5-5 5H735c-2.76 0-5-2.24-5-5z" stroke="#000" stroke-width="2" fill="#fff"/><use xlink:href="#c" transform="matrix(1,0,0,1,730,660) translate(8.029999999999996 19.41)"/><use xlink:href="#n" transform="matrix(1,0,0,1,730,660) translate(63.029999999999994 19.41)"/><use xlink:href="#l" transform="matrix(1,0,0,1,730,660) translate(39.555 41.01)"/><path d="M530 690h200" stroke="#000" stroke-width="2" fill="none"/><path d="M530 691v-2zM730 690l-14.27 4.64v-9.28z"/><path d="M730 688.95v2.1L714.73 696v-12zm-13.27 4.3l10.03-3.25-10.03-3.26z"/><use xlink:href="#o" transform="matrix(1,0,0,1,558.1264999850001,664.4000000000001) translate(0 14.4)"/><path d="M1050 665c0-2.76 2.24-5 5-5h130c2.76 0 5 2.24 5 5v50c0 2.76-2.24 5-5 5h-130c-2.76 0-5-2.24-5-5z" stroke="#000" stroke-width="2" fill="#fff"/><use xlink:href="#k" transform="matrix(1,0,0,1,1050,660) translate(22.58 19.41)"/><use xlink:href="#p" transform="matrix(1,0,0,1,1050,660) translate(76.53 19.41)"/><use xlink:href="#g" transform="matrix(1,0,0,1,1050,660) translate(14.629999999999997 41.01)"/><use xlink:href="#q" transform="matrix(1,0,0,1,1050,660) translate(51.53 41.01)"/><use xlink:href="#r" transform="matrix(1,0,0,1,1050,660) translate(96.43 41.01)"/><path d="M850 690h200" stroke="#000" stroke-width="2" fill="none"/><path d="M850 691v-2zM1050 690l-14.27 4.64v-9.28z"/><path d="M1050 688.95v2.1l-15.27 4.96v-12zm-13.27 4.3l10.03-3.25-10.03-3.26z"/><use xlink:href="#s" transform="matrix(1,0,0,1,868.151499985,664.4000000000001) translate(0 14.4)"/><path d="M1520 665c0-2.76 2.24-5 5-5h150c2.76 0 5 2.24 5 5v50c0 2.76-2.24 5-5 5h-150c-2.76 0-5-2.24-5-5z" stroke="#000" stroke-width="2" fill="#fff"/><use xlink:href="#t" transform="matrix(1,0,0,1,1520,660) translate(13.554999999999987 19.41)"/><use xlink:href="#n" transform="matrix(1,0,0,1,1520,660) translate(97.505 19.41)"/><use xlink:href="#u" transform="matrix(1,0,0,1,1520,660) translate(47.55499999999999 41.01)"/><path d="M1640 900c0 22.1-17.9 40-40 40s-40-17.9-40-40 17.9-40 40-40 40 17.9 40 40z" stroke="#000" stroke-width="2" fill="#fff"/><use xlink:href="#j" transform="matrix(1,0,0,1,1560,860) translate(22.53 44.4)"/><path d="M1600 860V720" stroke="#000" stroke-width="2" fill="none"/><path d="M1601 860.06l-1-.06-1 .04V860h2zM1604.64 734.27h-9.28L1600 720z"/><path d="M1606 735.27h-12l4.95-15.27h2.1zm-9.26-2h6.52l-3.26-10.03z"/><use xlink:href="#v" transform="matrix(1,0,0,1,1478.1999999999998,792.8123652840486) translate(0 14.4)"/><path d="M1060 875c0-2.76 2.24-5 5-5h110c2.76 0 5 2.24 5 5v50c0 2.76-2.24 5-5 5h-110c-2.76 0-5-2.24-5-5z" stroke="#000" stroke-width="2" fill="#fff"/><use xlink:href="#w" transform="matrix(1,0,0,1,1060,870) translate(36.555 19.41)"/><use xlink:href="#x" transform="matrix(1,0,0,1,1060,870) translate(26.57999999999999 41.01)"/><path d="M1120 870V720" stroke="#000" stroke-width="2" fill="none"/><path d="M1124.64 734.27h-9.28L1120 720z"/><path d="M1126 735.27h-12l4.95-15.27h2.1zm-9.26-2h6.52l-3.26-10.03z"/><use xlink:href="#y" transform="matrix(1,0,0,1,959.1999999999999,784.2) translate(0 14.4)"/><path d="M310 1085c0-2.76 2.24-5 5-5h110c2.76 0 5 2.24 5 5v50c0 2.76-2.24 5-5 5H315c-2.76 0-5-2.24-5-5z" stroke="#000" stroke-width="2" fill="#fff"/><use xlink:href="#z" transform="matrix(1,0,0,1,310,1080) translate(6.054999999999994 33.15)"/><use xlink:href="#A" transform="matrix(1,0,0,1,310,1080) translate(66.005 33.15)"/><path d="M580 1085c0-2.76 2.24-5 5-5h130c2.76 0 5 2.24 5 5v50c0 2.76-2.24 5-5 5H585c-2.76 0-5-2.24-5-5z" stroke="#000" stroke-width="2" fill="#fff"/><use xlink:href="#z" transform="matrix(1,0,0,1,580,1080) translate(16.054999999999993 19.41)"/><use xlink:href="#B" transform="matrix(1,0,0,1,580,1080) translate(76.005 19.41)"/><use xlink:href="#g" transform="matrix(1,0,0,1,580,1080) translate(24.57999999999999 41.01)"/><use xlink:href="#C" transform="matrix(1,0,0,1,580,1080) translate(61.48 41.01)"/><path d="M430 1110h149" stroke="#000" stroke-width="2" fill="none"/><path d="M430 1111v-2zM579 1110l-14.27 4.64v-9.28z"/><path d="M580 1109.27v1.46l-16.27 5.28v-12zm-14.27 4l10.03-3.27-10.03-3.26z"/><use xlink:href="#D" transform="matrix(1,0,0,1,440.07611748882454,1084.4000000000003) translate(0 14.4)"/><path d="M900 1085c0-2.76 2.24-5 5-5h130c2.76 0 5 2.24 5 5v50c0 2.76-2.24 5-5 5H905c-2.76 0-5-2.24-5-5z" stroke="#000" stroke-width="2" fill="#fff"/><use xlink:href="#E" transform="matrix(1,0,0,1,900.0000000000001,1080) translate(34.07999999999999 19.41)"/><use xlink:href="#F" transform="matrix(1,0,0,1,900.0000000000001,1080) translate(42.529999999999994 41.01)"/><path d="M740 875c0-2.76 2.24-5 5-5h150c2.76 0 5 2.24 5 5v50c0 2.76-2.24 5-5 5H745c-2.76 0-5-2.24-5-5z" stroke="#000" stroke-width="2" fill="#fff"/><use xlink:href="#G" transform="matrix(1,0,0,1,740,870) translate(10.62999999999999 19.41)"/><use xlink:href="#H" transform="matrix(1,0,0,1,740,870) translate(82.53 19.41)"/><use xlink:href="#g" transform="matrix(1,0,0,1,740,870) translate(29.57999999999999 41.01)"/><use xlink:href="#I" transform="matrix(1,0,0,1,740,870) translate(66.47999999999999 41.01)"/><path d="M1210 1090c0-2.76 2.24-5 5-5h130c2.76 0 5 2.24 5 5v50c0 2.76-2.24 5-5 5h-130c-2.76 0-5-2.24-5-5z" stroke="#000" stroke-width="2" fill="#fff"/><use xlink:href="#J" transform="matrix(1,0,0,1,1210,1085) translate(5.529999999999996 33.15)"/><use xlink:href="#F" transform="matrix(1,0,0,1,1210,1085) translate(79.53 33.15)"/><path d="M720 1110h179" stroke="#000" stroke-width="2" fill="none"/><path d="M720 1111v-2zM899 1110l-14.27 4.64v-9.28z"/><path d="M900 1109.27v1.46l-16.27 5.28v-12zm-14.27 4l10.03-3.27-10.03-3.26z"/><use xlink:href="#K" transform="matrix(1,0,0,1,740.6513423199057,1084.4000000000003) translate(0 14.4)"/><path d="M1040 1110h169" stroke="#000" stroke-width="2" fill="none"/><path d="M1040 1111v-2zM1209 1110l-14.27 4.64v-9.28z"/><path d="M1210 1109.27v1.46l-16.27 5.28v-12zm-14.27 4l10.03-3.27-10.03-3.26z"/><use xlink:href="#L" transform="matrix(1,0,0,1,1053.3481480006171,1084.4000000000003) translate(0 14.4)"/><path d="M900 900h159" stroke="#000" stroke-width="2" fill="none"/><path d="M900 901v-2zM1059 900l-14.27 4.64v-9.28z"/><path d="M1060 899.27v1.46l-16.27 5.28v-12zm-14.27 4l10.03-3.27-10.03-3.26z"/><use xlink:href="#M" transform="matrix(1,0,0,1,921.6261923214058,874.4000000000001) translate(0 14.4)"/><path d="M440 875c0-2.76 2.24-5 5-5h130c2.76 0 5 2.24 5 5v50c0 2.76-2.24 5-5 5H445c-2.76 0-5-2.24-5-5z" stroke="#000" stroke-width="2" fill="#fff"/><use xlink:href="#N" transform="matrix(1,0,0,1,440,870) translate(36.55499999999999 19.41)"/><use xlink:href="#x" transform="matrix(1,0,0,1,440,870) translate(36.57999999999999 41.01)"/><path d="M280 900c0 22.1-17.9 40-40 40s-40-17.9-40-40 17.9-40 40-40 40 17.9 40 40z" stroke="#000" stroke-width="2" fill="#fff"/><use xlink:href="#j" transform="matrix(1,0,0,1,200,860) translate(22.53 44.4)"/><path d="M280 900h160" stroke="#000" stroke-width="2" fill="none"/><path d="M280 901h-.06l.06-1-.04-1h.04zM440 900l-14.27 4.64v-9.28z"/><path d="M440 898.95v2.1L424.73 906v-12zm-13.27 4.3l10.03-3.25-10.03-3.26z"/><use xlink:href="#O" transform="matrix(1,0,0,1,291.6511999879999,874.4000000000001) translate(0 14.4)"/><path d="M581 900h159" stroke="#000" stroke-width="2" fill="none"/><path d="M581 901h-1v-2h1zM740 900l-14.27 4.64v-9.28z"/><path d="M740 898.95v2.1L724.73 906v-12zm-13.27 4.3l10.03-3.25-10.03-3.26z"/><use xlink:href="#L" transform="matrix(1,0,0,1,590.2166666666667,874.4000000000001) translate(0 14.4)"/><path d="M1350 1115h189" stroke="#000" stroke-width="2" fill="none"/><path d="M1350 1116v-2zM1539 1115l-14.27 4.64v-9.28z"/><path d="M1540.04 1114.3l-.04.7.03.72-16.3 5.3v-12.03zm-14.3 3.96l10.02-3.26-10.03-3.26z"/><use xlink:href="#P" transform="matrix(1,0,0,1,1382.6008220316467,1089.400000000454) translate(0 14.4)"/><path d="M160 1110c0 22.1-17.9 40-40 40s-40-17.9-40-40 17.9-40 40-40 40 17.9 40 40z" stroke="#000" stroke-width="2" fill="#fff"/><use xlink:href="#j" transform="matrix(1,0,0,1,80,1070) translate(22.53 44.4)"/><path d="M160 1110h149" stroke="#000" stroke-width="2" fill="none"/><path d="M160 1111h-.06l.06-1-.04-1h.04zM309 1110l-14.27 4.64v-9.28z"/><path d="M310 1109.27v1.46l-16.27 5.28v-12zm-14.27 4l10.03-3.27-10.03-3.26z"/><use xlink:href="#Q" transform="matrix(1,0,0,1,171.60111748882466,1084.4000000000003) translate(0 14.4)"/><path d="M1190 690h330" stroke="#000" stroke-width="2" fill="none"/><path d="M1190 691v-2zM1520 690l-14.27 4.64v-9.28z"/><path d="M1520 688.95v2.1l-15.27 4.96v-12zm-13.27 4.3l10.03-3.25-10.03-3.26z"/><g><use xlink:href="#R" transform="matrix(1,0,0,1,1226.827173913044,664.4000000000001) translate(0 14.4)"/></g><path d="M1640 300c0 22.1-17.9 40-40 40s-40-17.9-40-40 17.9-40 40-40 40 17.9 40 40z" stroke="#000" stroke-width="2"/><g><use xlink:href="#S" transform="matrix(1,0,0,1,1560,260) translate(40.005 44.4)"/></g><path d="M1600 460V340" stroke="#000" stroke-width="2" fill="none"/><path d="M1601 460h-2 2zM1604.64 354.27h-9.28L1600 340z"/><path d="M1600 340l1.04-.04 4.97 15.3h-12l4.97-15.32zm-3.26 13.27h6.52l-3.26-10.03z"/><g><use xlink:href="#T" transform="matrix(1,0,0,1,1469.55,389.19910000899995) translate(0 14.4)"/></g><path d="M1420 900c0 22.1-17.9 40-40 40s-40-17.9-40-40 17.9-40 40-40 40 17.9 40 40z" stroke="#000" stroke-width="2"/><g><use xlink:href="#S" transform="matrix(1,0,0,1,1340,860) translate(40.005 44.4)"/></g><path d="M1180 900h159" stroke="#000" stroke-width="2" fill="none"/><path d="M1180 901v-2zM1339 900l-14.27 4.64v-9.28z"/><path d="M1340.04 899.3l-.04.7.03.72-16.3 5.3v-12.03zm-14.3 3.96l10.02-3.26-10.03-3.26z"/><g><use xlink:href="#U" transform="matrix(1,0,0,1,1199.3372175349566,904.0000000003472) translate(0 14.4)"/></g><path d="M1620 1115c0 22.1-17.9 40-40 40s-40-17.9-40-40 17.9-40 40-40 40 17.9 40 40z" stroke="#000" stroke-width="2"/><g><use xlink:href="#S" transform="matrix(1,0,0,1,1540,1075) translate(40.005 44.4)"/></g><path d="M1600 520v139" stroke="#000" stroke-width="2" fill="none"/><path d="M1601 520h-2 2zM1600 659l-4.64-14.27h9.28z"/><path d="M1600.73 660h-1.46l-5.28-16.27h12zm-4-14.27l3.27 10.03 3.26-10.03z"/><defs><path d="M115-194c53 0 69 39 70 98 0 66-23 100-70 100C84 3 66-7 56-30L54 0H23l1-261h32v101c10-23 28-34 59-34zm-8 174c40 0 45-34 45-75 0-40-5-75-45-74-42 0-51 32-51 76 0 43 10 73 51 73" id="V"/><path d="M84 4C-5 8 30-112 23-190h32v120c0 31 7 50 39 49 72-2 45-101 50-169h31l1 190h-30c-1-10 1-25-2-33-11 22-28 36-60 37" id="W"/><path d="M101-234c-31-9-42 10-38 44h38v23H63V0H32v-167H5v-23h27c-7-52 17-82 69-68v24" id="X"/><path d="M100-194c63 0 86 42 84 106H49c0 40 14 67 53 68 26 1 43-12 49-29l28 8c-11 28-37 45-77 45C44 4 14-33 15-96c1-61 26-98 85-98zm52 81c6-60-76-77-97-28-3 7-6 17-6 28h103" id="Y"/><path d="M114-163C36-179 61-72 57 0H25l-1-190h30c1 12-1 29 2 39 6-27 23-49 58-41v29" id="Z"/><g id="a"><use transform="matrix(0.05,0,0,0.05,0,0)" xlink:href="#V"/><use transform="matrix(0.05,0,0,0.05,10,0)" xlink:href="#W"/><use transform="matrix(0.05,0,0,0.05,20,0)" xlink:href="#X"/><use transform="matrix(0.05,0,0,0.05,24.65,0)" xlink:href="#X"/><use transform="matrix(0.05,0,0,0.05,29.649999999999995,0)" xlink:href="#Y"/><use transform="matrix(0.05,0,0,0.05,39.65,0)" xlink:href="#Z"/></g><path d="M177-190C167-65 218 103 67 71c-23-6-38-20-44-43l32-5c15 47 100 32 89-28v-30C133-14 115 1 83 1 29 1 15-40 15-95c0-56 16-97 71-98 29-1 48 16 59 35 1-10 0-23 2-32h30zM94-22c36 0 50-32 50-73 0-42-14-75-50-75-39 0-46 34-46 75s6 73 46 73" id="aa"/><path d="M24 0v-261h32V0H24" id="ab"/><path d="M143 4C61 4 22-44 18-125c-5-107 100-154 193-111 17 8 29 25 37 43l-32 9c-13-25-37-40-76-40-61 0-88 39-88 99 0 61 29 100 91 101 35 0 62-11 79-27v-45h-74v-28h105v86C228-13 192 4 143 4" id="ac"/><path d="M117-194c89-4 53 116 60 194h-32v-121c0-31-8-49-39-48C34-167 62-67 57 0H25l-1-190h30c1 10-1 24 2 32 11-22 29-35 61-36" id="ad"/><path d="M160-131c35 5 61 23 61 61C221 17 115-2 30 0v-248c76 3 177-17 177 60 0 33-19 50-47 57zm-97-11c50-1 110 9 110-42 0-47-63-36-110-37v79zm0 115c55-2 124 14 124-45 0-56-70-42-124-44v89" id="ae"/><path d="M135-143c-3-34-86-38-87 0 15 53 115 12 119 90S17 21 10-45l28-5c4 36 97 45 98 0-10-56-113-15-118-90-4-57 82-63 122-42 12 7 21 19 24 35" id="af"/><g id="b"><use transform="matrix(0.05,0,0,0.05,0,0)" xlink:href="#aa"/><use transform="matrix(0.05,0,0,0.05,10,0)" xlink:href="#ab"/><use transform="matrix(0.05,0,0,0.05,13.949999999999998,0)" xlink:href="#ac"/><use transform="matrix(0.05,0,0,0.05,27.950000000000003,0)" xlink:href="#Y"/><use transform="matrix(0.05,0,0,0.05,37.95,0)" xlink:href="#ad"/><use transform="matrix(0.05,0,0,0.05,47.95,0)" xlink:href="#ae"/><use transform="matrix(0.05,0,0,0.05,59.95,0)" xlink:href="#W"/><use transform="matrix(0.05,0,0,0.05,69.95,0)" xlink:href="#X"/><use transform="matrix(0.05,0,0,0.05,74.60000000000001,0)" xlink:href="#X"/><use transform="matrix(0.05,0,0,0.05,79.60000000000001,0)" xlink:href="#Y"/><use transform="matrix(0.05,0,0,0.05,89.60000000000001,0)" xlink:href="#Z"/><use transform="matrix(0.05,0,0,0.05,95.55000000000001,0)" xlink:href="#af"/></g><path d="M100-194c62-1 85 37 85 99 1 63-27 99-86 99S16-35 15-95c0-66 28-99 85-99zM99-20c44 1 53-31 53-75 0-43-8-75-51-75s-53 32-53 75 10 74 51 75" id="ag"/><path d="M85-194c31 0 48 13 60 33l-1-100h32l1 261h-30c-2-10 0-23-3-31C134-8 116 4 85 4 32 4 16-35 15-94c0-66 23-100 70-100zm9 24c-40 0-46 34-46 75 0 40 6 74 45 74 42 0 51-32 51-76 0-42-9-74-50-73" id="ah"/><g id="c"><use transform="matrix(0.05,0,0,0.05,0,0)" xlink:href="#V"/><use transform="matrix(0.05,0,0,0.05,10,0)" xlink:href="#ag"/><use transform="matrix(0.05,0,0,0.05,20,0)" xlink:href="#W"/><use transform="matrix(0.05,0,0,0.05,30,0)" xlink:href="#ad"/><use transform="matrix(0.05,0,0,0.05,40,0)" xlink:href="#ah"/></g><g id="d"><use transform="matrix(0.05,0,0,0.05,0,0)" xlink:href="#V"/><use transform="matrix(0.05,0,0,0.05,10,0)" xlink:href="#W"/><use transform="matrix(0.05,0,0,0.05,20,0)" xlink:href="#X"/><use transform="matrix(0.05,0,0,0.05,24.65,0)" xlink:href="#X"/><use transform="matrix(0.05,0,0,0.05,29.649999999999995,0)" xlink:href="#Y"/><use transform="matrix(0.05,0,0,0.05,39.65,0)" xlink:href="#Z"/></g><path d="M24-231v-30h32v30H24zM24 0v-190h32V0H24" id="ai"/><g id="e"><use transform="matrix(0.05,0,0,0.05,0,0)" xlink:href="#aa"/><use transform="matrix(0.05,0,0,0.05,10,0)" xlink:href="#ab"/><use transform="matrix(0.05,0,0,0.05,13.949999999999998,0)" xlink:href="#ae"/><use transform="matrix(0.05,0,0,0.05,25.950000000000003,0)" xlink:href="#ai"/><use transform="matrix(0.05,0,0,0.05,29.899999999999995,0)" xlink:href="#ad"/><use transform="matrix(0.05,0,0,0.05,39.9,0)" xlink:href="#ah"/><use transform="matrix(0.05,0,0,0.05,49.9,0)" xlink:href="#ae"/><use transform="matrix(0.05,0,0,0.05,61.900000000000006,0)" xlink:href="#W"/><use transform="matrix(0.05,0,0,0.05,71.9,0)" xlink:href="#X"/><use transform="matrix(0.05,0,0,0.05,76.55000000000001,0)" xlink:href="#X"/><use transform="matrix(0.05,0,0,0.05,81.55000000000001,0)" xlink:href="#Y"/><use transform="matrix(0.05,0,0,0.05,91.55000000000001,0)" xlink:href="#Z"/></g><g id="f"><use transform="matrix(0.05,0,0,0.05,0,0)" xlink:href="#V"/><use transform="matrix(0.05,0,0,0.05,10,0)" xlink:href="#W"/><use transform="matrix(0.05,0,0,0.05,20,0)" xlink:href="#X"/><use transform="matrix(0.05,0,0,0.05,24.65,0)" xlink:href="#X"/><use transform="matrix(0.05,0,0,0.05,29.649999999999995,0)" xlink:href="#Y"/><use transform="matrix(0.05,0,0,0.05,39.65,0)" xlink:href="#Z"/></g><path d="M206 0h-36l-40-164L89 0H53L-1-190h32L70-26l43-164h34l41 164 42-164h31" id="aj"/><path d="M59-47c-2 24 18 29 38 22v24C64 9 27 4 27-40v-127H5v-23h24l9-43h21v43h35v23H59v120" id="ak"/><path d="M106-169C34-169 62-67 57 0H25v-261h32l-1 103c12-21 28-36 61-36 89 0 53 116 60 194h-32v-121c2-32-8-49-39-48" id="al"/><g id="g"><use transform="matrix(0.05,0,0,0.05,0,0)" xlink:href="#aj"/><use transform="matrix(0.05,0,0,0.05,12.950000000000001,0)" xlink:href="#ai"/><use transform="matrix(0.05,0,0,0.05,16.900000000000002,0)" xlink:href="#ak"/><use transform="matrix(0.05,0,0,0.05,21.900000000000002,0)" xlink:href="#al"/></g><path d="M141-36C126-15 110 5 73 4 37 3 15-17 15-53c-1-64 63-63 125-63 3-35-9-54-41-54-24 1-41 7-42 31l-33-3c5-37 33-52 76-52 45 0 72 20 72 64v82c-1 20 7 32 28 27v20c-31 9-61-2-59-35zM48-53c0 20 12 33 32 33 41-3 63-29 60-74-43 2-92-5-92 41" id="am"/><g id="h"><use transform="matrix(0.05,0,0,0.05,0,0)" xlink:href="#ah"/><use transform="matrix(0.05,0,0,0.05,10,0)" xlink:href="#am"/><use transform="matrix(0.05,0,0,0.05,20,0)" xlink:href="#ak"/><use transform="matrix(0.05,0,0,0.05,25,0)" xlink:href="#am"/></g><path d="M30-248c118-7 216 8 213 122C240-48 200 0 122 0H30v-248zM63-27c89 8 146-16 146-99s-60-101-146-95v194" id="an"/><g id="i"><use transform="matrix(0.05,0,0,0.05,0,0)" xlink:href="#aa"/><use transform="matrix(0.05,0,0,0.05,10,0)" xlink:href="#ab"/><use transform="matrix(0.05,0,0,0.05,13.949999999999998,0)" xlink:href="#ae"/><use transform="matrix(0.05,0,0,0.05,25.950000000000003,0)" xlink:href="#W"/><use transform="matrix(0.05,0,0,0.05,35.95,0)" xlink:href="#X"/><use transform="matrix(0.05,0,0,0.05,40.6,0)" xlink:href="#X"/><use transform="matrix(0.05,0,0,0.05,45.6,0)" xlink:href="#Y"/><use transform="matrix(0.05,0,0,0.05,55.6,0)" xlink:href="#Z"/><use transform="matrix(0.05,0,0,0.05,61.550000000000004,0)" xlink:href="#an"/><use transform="matrix(0.05,0,0,0.05,74.5,0)" xlink:href="#am"/><use transform="matrix(0.05,0,0,0.05,84.5,0)" xlink:href="#ak"/><use transform="matrix(0.05,0,0,0.05,89.5,0)" xlink:href="#am"/></g><g id="j"><use transform="matrix(0.05,0,0,0.05,0,0)" xlink:href="#af"/><use transform="matrix(0.05,0,0,0.05,9,0)" xlink:href="#ak"/><use transform="matrix(0.05,0,0,0.05,14,0)" xlink:href="#am"/><use transform="matrix(0.05,0,0,0.05,24,0)" xlink:href="#Z"/><use transform="matrix(0.05,0,0,0.05,29.950000000000003,0)" xlink:href="#ak"/></g><path d="M108 0H70L1-190h34L89-25l56-165h34" id="ao"/><path d="M141 0L90-78 38 0H4l68-98-65-92h35l48 74 47-74h35l-64 92 68 98h-35" id="ap"/><g id="k"><use transform="matrix(0.05,0,0,0.05,0,0)" xlink:href="#ao"/><use transform="matrix(0.05,0,0,0.05,9,0)" xlink:href="#Y"/><use transform="matrix(0.05,0,0,0.05,19,0)" xlink:href="#Z"/><use transform="matrix(0.05,0,0,0.05,24.95,0)" xlink:href="#ak"/><use transform="matrix(0.05,0,0,0.05,29.950000000000003,0)" xlink:href="#Y"/><use transform="matrix(0.05,0,0,0.05,39.95,0)" xlink:href="#ap"/></g><path d="M179-190L93 31C79 59 56 82 12 73V49c39 6 53-20 64-50L1-190h34L92-34l54-156h33" id="aq"/><g id="l"><use transform="matrix(0.05,0,0,0.05,0,0)" xlink:href="#am"/><use transform="matrix(0.05,0,0,0.05,10,0)" xlink:href="#Z"/><use transform="matrix(0.05,0,0,0.05,15.949999999999998,0)" xlink:href="#Z"/><use transform="matrix(0.05,0,0,0.05,21.9,0)" xlink:href="#am"/><use transform="matrix(0.05,0,0,0.05,31.899999999999995,0)" xlink:href="#aq"/></g><path d="M137 0h-34L2-248h35l83 218 83-218h36" id="ar"/><path d="M205 0l-28-72H64L36 0H1l101-248h38L239 0h-34zm-38-99l-47-123c-12 45-31 82-46 123h93" id="as"/><g id="m"><use transform="matrix(0.05,0,0,0.05,0,0)" xlink:href="#aa"/><use transform="matrix(0.05,0,0,0.05,10,0)" xlink:href="#ab"/><use transform="matrix(0.05,0,0,0.05,13.949999999999998,0)" xlink:href="#ac"/><use transform="matrix(0.05,0,0,0.05,27.950000000000003,0)" xlink:href="#Y"/><use transform="matrix(0.05,0,0,0.05,37.95,0)" xlink:href="#ad"/><use transform="matrix(0.05,0,0,0.05,47.95,0)" xlink:href="#ar"/><use transform="matrix(0.05,0,0,0.05,58.95,0)" xlink:href="#Y"/><use transform="matrix(0.05,0,0,0.05,68.95,0)" xlink:href="#Z"/><use transform="matrix(0.05,0,0,0.05,74.9,0)" xlink:href="#ak"/><use transform="matrix(0.05,0,0,0.05,79.9,0)" xlink:href="#Y"/><use transform="matrix(0.05,0,0,0.05,89.9,0)" xlink:href="#ap"/><use transform="matrix(0.05,0,0,0.05,98.9,0)" xlink:href="#as"/><use transform="matrix(0.05,0,0,0.05,110.9,0)" xlink:href="#Z"/><use transform="matrix(0.05,0,0,0.05,116.85000000000001,0)" xlink:href="#Z"/><use transform="matrix(0.05,0,0,0.05,122.80000000000001,0)" xlink:href="#am"/><use transform="matrix(0.05,0,0,0.05,132.8,0)" xlink:href="#aq"/><use transform="matrix(0.05,0,0,0.05,141.8,0)" xlink:href="#af"/></g><g id="n"><use transform="matrix(0.05,0,0,0.05,0,0)" xlink:href="#ao"/><use transform="matrix(0.05,0,0,0.05,9,0)" xlink:href="#Y"/><use transform="matrix(0.05,0,0,0.05,19,0)" xlink:href="#Z"/><use transform="matrix(0.05,0,0,0.05,24.95,0)" xlink:href="#ak"/><use transform="matrix(0.05,0,0,0.05,29.950000000000003,0)" xlink:href="#Y"/><use transform="matrix(0.05,0,0,0.05,39.95,0)" xlink:href="#ap"/></g><g id="o"><use transform="matrix(0.05,0,0,0.05,0,0)" xlink:href="#aa"/><use transform="matrix(0.05,0,0,0.05,10,0)" xlink:href="#ab"/><use transform="matrix(0.05,0,0,0.05,13.949999999999998,0)" xlink:href="#ae"/><use transform="matrix(0.05,0,0,0.05,25.950000000000003,0)" xlink:href="#ai"/><use transform="matrix(0.05,0,0,0.05,29.899999999999995,0)" xlink:href="#ad"/><use transform="matrix(0.05,0,0,0.05,39.9,0)" xlink:href="#ah"/><use transform="matrix(0.05,0,0,0.05,49.9,0)" xlink:href="#ar"/><use transform="matrix(0.05,0,0,0.05,60.900000000000006,0)" xlink:href="#Y"/><use transform="matrix(0.05,0,0,0.05,70.9,0)" xlink:href="#Z"/><use transform="matrix(0.05,0,0,0.05,76.85000000000001,0)" xlink:href="#ak"/><use transform="matrix(0.05,0,0,0.05,81.85000000000001,0)" xlink:href="#Y"/><use transform="matrix(0.05,0,0,0.05,91.85000000000001,0)" xlink:href="#ap"/><use transform="matrix(0.05,0,0,0.05,100.85000000000001,0)" xlink:href="#as"/><use transform="matrix(0.05,0,0,0.05,112.85000000000001,0)" xlink:href="#Z"/><use transform="matrix(0.05,0,0,0.05,118.80000000000001,0)" xlink:href="#Z"/><use transform="matrix(0.05,0,0,0.05,124.75,0)" xlink:href="#am"/><use transform="matrix(0.05,0,0,0.05,134.75,0)" xlink:href="#aq"/></g><g id="p"><use transform="matrix(0.05,0,0,0.05,0,0)" xlink:href="#am"/><use transform="matrix(0.05,0,0,0.05,10,0)" xlink:href="#Z"/><use transform="matrix(0.05,0,0,0.05,15.949999999999998,0)" xlink:href="#Z"/><use transform="matrix(0.05,0,0,0.05,21.9,0)" xlink:href="#am"/><use transform="matrix(0.05,0,0,0.05,31.899999999999995,0)" xlink:href="#aq"/></g><g id="q"><use transform="matrix(0.05,0,0,0.05,0,0)" xlink:href="#am"/><use transform="matrix(0.05,0,0,0.05,10,0)" xlink:href="#ak"/><use transform="matrix(0.05,0,0,0.05,15,0)" xlink:href="#ak"/><use transform="matrix(0.05,0,0,0.05,20,0)" xlink:href="#Z"/><use transform="matrix(0.05,0,0,0.05,25.950000000000003,0)" xlink:href="#ai"/><use transform="matrix(0.05,0,0,0.05,29.899999999999995,0)" xlink:href="#V"/></g><g id="r"><use transform="matrix(0.05,0,0,0.05,0,0)" xlink:href="#ai"/><use transform="matrix(0.05,0,0,0.05,3.95,0)" xlink:href="#ad"/><use transform="matrix(0.05,0,0,0.05,13.949999999999998,0)" xlink:href="#X"/><use transform="matrix(0.05,0,0,0.05,18.95,0)" xlink:href="#ag"/></g><path d="M30-248c87 1 191-15 191 75 0 78-77 80-158 76V0H30v-248zm33 125c57 0 124 11 124-50 0-59-68-47-124-48v98" id="at"/><g id="s"><use transform="matrix(0.05,0,0,0.05,0,0)" xlink:href="#aa"/><use transform="matrix(0.05,0,0,0.05,10,0)" xlink:href="#ab"/><use transform="matrix(0.05,0,0,0.05,13.949999999999998,0)" xlink:href="#ar"/><use transform="matrix(0.05,0,0,0.05,24.95,0)" xlink:href="#Y"/><use transform="matrix(0.05,0,0,0.05,34.95,0)" xlink:href="#Z"/><use transform="matrix(0.05,0,0,0.05,40.900000000000006,0)" xlink:href="#ak"/><use transform="matrix(0.05,0,0,0.05,45.900000000000006,0)" xlink:href="#Y"/><use transform="matrix(0.05,0,0,0.05,55.900000000000006,0)" xlink:href="#ap"/><use transform="matrix(0.05,0,0,0.05,64.9,0)" xlink:href="#as"/><use transform="matrix(0.05,0,0,0.05,76.9,0)" xlink:href="#ak"/><use transform="matrix(0.05,0,0,0.05,81.9,0)" xlink:href="#ak"/><use transform="matrix(0.05,0,0,0.05,86.9,0)" xlink:href="#Z"/><use transform="matrix(0.05,0,0,0.05,92.85000000000001,0)" xlink:href="#ai"/><use transform="matrix(0.05,0,0,0.05,96.80000000000001,0)" xlink:href="#V"/><use transform="matrix(0.05,0,0,0.05,106.80000000000001,0)" xlink:href="#at"/><use transform="matrix(0.05,0,0,0.05,118.80000000000001,0)" xlink:href="#ag"/><use transform="matrix(0.05,0,0,0.05,128.8,0)" xlink:href="#ai"/><use transform="matrix(0.05,0,0,0.05,132.75,0)" xlink:href="#ad"/><use transform="matrix(0.05,0,0,0.05,142.75,0)" xlink:href="#ak"/><use transform="matrix(0.05,0,0,0.05,147.75,0)" xlink:href="#Y"/><use transform="matrix(0.05,0,0,0.05,157.75,0)" xlink:href="#Z"/></g><path d="M115-194c55 1 70 41 70 98S169 2 115 4C84 4 66-9 55-30l1 105H24l-1-265h31l2 30c10-21 28-34 59-34zm-8 174c40 0 45-34 45-75s-6-73-45-74c-42 0-51 32-51 76 0 43 10 73 51 73" id="au"/><g id="t"><use transform="matrix(0.05,0,0,0.05,0,0)" xlink:href="#au"/><use transform="matrix(0.05,0,0,0.05,10,0)" xlink:href="#ag"/><use transform="matrix(0.05,0,0,0.05,20,0)" xlink:href="#au"/><use transform="matrix(0.05,0,0,0.05,30,0)" xlink:href="#W"/><use transform="matrix(0.05,0,0,0.05,40,0)" xlink:href="#ab"/><use transform="matrix(0.05,0,0,0.05,43.95,0)" xlink:href="#am"/><use transform="matrix(0.05,0,0,0.05,53.95,0)" xlink:href="#ak"/><use transform="matrix(0.05,0,0,0.05,58.95,0)" xlink:href="#Y"/><use transform="matrix(0.05,0,0,0.05,68.95,0)" xlink:href="#ah"/></g><g id="u"><use transform="matrix(0.05,0,0,0.05,0,0)" xlink:href="#am"/><use transform="matrix(0.05,0,0,0.05,10,0)" xlink:href="#ak"/><use transform="matrix(0.05,0,0,0.05,15,0)" xlink:href="#ak"/><use transform="matrix(0.05,0,0,0.05,20,0)" xlink:href="#Z"/><use transform="matrix(0.05,0,0,0.05,25.950000000000003,0)" xlink:href="#ai"/><use transform="matrix(0.05,0,0,0.05,29.899999999999995,0)" xlink:href="#V"/><use transform="matrix(0.05,0,0,0.05,39.9,0)" xlink:href="#W"/><use transform="matrix(0.05,0,0,0.05,49.9,0)" xlink:href="#ak"/><use transform="matrix(0.05,0,0,0.05,54.900000000000006,0)" xlink:href="#Y"/></g><path d="M80-196l47-18 7 23-49 13 32 44-20 13-27-46-27 45-21-12 33-44-49-13 8-23 47 19-2-53h23" id="av"/><g id="v"><use transform="matrix(0.05,0,0,0.05,0,0)" xlink:href="#aa"/><use transform="matrix(0.05,0,0,0.05,10,0)" xlink:href="#ab"/><use transform="matrix(0.05,0,0,0.05,13.949999999999998,0)" xlink:href="#ar"/><use transform="matrix(0.05,0,0,0.05,24.95,0)" xlink:href="#Y"/><use transform="matrix(0.05,0,0,0.05,34.95,0)" xlink:href="#Z"/><use transform="matrix(0.05,0,0,0.05,40.900000000000006,0)" xlink:href="#ak"/><use transform="matrix(0.05,0,0,0.05,45.900000000000006,0)" xlink:href="#Y"/><use transform="matrix(0.05,0,0,0.05,55.900000000000006,0)" xlink:href="#ap"/><use transform="matrix(0.05,0,0,0.05,64.9,0)" xlink:href="#as"/><use transform="matrix(0.05,0,0,0.05,76.9,0)" xlink:href="#ak"/><use transform="matrix(0.05,0,0,0.05,81.9,0)" xlink:href="#ak"/><use transform="matrix(0.05,0,0,0.05,86.9,0)" xlink:href="#Z"/><use transform="matrix(0.05,0,0,0.05,92.85000000000001,0)" xlink:href="#ai"/><use transform="matrix(0.05,0,0,0.05,96.80000000000001,0)" xlink:href="#V"/><use transform="matrix(0.05,0,0,0.05,106.80000000000001,0)" xlink:href="#av"/></g><path d="M143 0L79-87 56-68V0H24v-261h32v163l83-92h37l-77 82L181 0h-38" id="aw"/><g id="w"><use transform="matrix(0.05,0,0,0.05,0,0)" xlink:href="#ab"/><use transform="matrix(0.05,0,0,0.05,3.95,0)" xlink:href="#ai"/><use transform="matrix(0.05,0,0,0.05,7.9,0)" xlink:href="#ad"/><use transform="matrix(0.05,0,0,0.05,17.9,0)" xlink:href="#aw"/><use transform="matrix(0.05,0,0,0.05,26.899999999999995,0)" xlink:href="#Y"/><use transform="matrix(0.05,0,0,0.05,36.9,0)" xlink:href="#ah"/></g><path d="M210-169c-67 3-38 105-44 169h-31v-121c0-29-5-50-35-48C34-165 62-65 56 0H25l-1-190h30c1 10-1 24 2 32 10-44 99-50 107 0 11-21 27-35 58-36 85-2 47 119 55 194h-31v-121c0-29-5-49-35-48" id="ax"/><g id="x"><use transform="matrix(0.05,0,0,0.05,0,0)" xlink:href="#au"/><use transform="matrix(0.05,0,0,0.05,10,0)" xlink:href="#Z"/><use transform="matrix(0.05,0,0,0.05,15.949999999999998,0)" xlink:href="#ag"/><use transform="matrix(0.05,0,0,0.05,25.950000000000003,0)" xlink:href="#aa"/><use transform="matrix(0.05,0,0,0.05,35.95,0)" xlink:href="#Z"/><use transform="matrix(0.05,0,0,0.05,41.900000000000006,0)" xlink:href="#am"/><use transform="matrix(0.05,0,0,0.05,51.900000000000006,0)" xlink:href="#ax"/></g><path d="M30 0v-248h33v221h125V0H30" id="ay"/><path d="M96-169c-40 0-48 33-48 73s9 75 48 75c24 0 41-14 43-38l32 2c-6 37-31 61-74 61-59 0-76-41-82-99-10-93 101-131 147-64 4 7 5 14 7 22l-32 3c-4-21-16-35-41-35" id="az"/><g id="y"><use transform="matrix(0.05,0,0,0.05,0,0)" xlink:href="#aa"/><use transform="matrix(0.05,0,0,0.05,10,0)" xlink:href="#ab"/><use transform="matrix(0.05,0,0,0.05,13.949999999999998,0)" xlink:href="#ac"/><use transform="matrix(0.05,0,0,0.05,27.950000000000003,0)" xlink:href="#Y"/><use transform="matrix(0.05,0,0,0.05,37.95,0)" xlink:href="#ak"/><use transform="matrix(0.05,0,0,0.05,42.95,0)" xlink:href="#as"/><use transform="matrix(0.05,0,0,0.05,54.95,0)" xlink:href="#ak"/><use transform="matrix(0.05,0,0,0.05,59.95,0)" xlink:href="#ak"/><use transform="matrix(0.05,0,0,0.05,64.95,0)" xlink:href="#Z"/><use transform="matrix(0.05,0,0,0.05,70.9,0)" xlink:href="#ai"/><use transform="matrix(0.05,0,0,0.05,74.85000000000001,0)" xlink:href="#V"/><use transform="matrix(0.05,0,0,0.05,84.85000000000001,0)" xlink:href="#ay"/><use transform="matrix(0.05,0,0,0.05,94.85000000000001,0)" xlink:href="#ag"/><use transform="matrix(0.05,0,0,0.05,104.85000000000001,0)" xlink:href="#az"/><use transform="matrix(0.05,0,0,0.05,113.85000000000001,0)" xlink:href="#am"/><use transform="matrix(0.05,0,0,0.05,123.85000000000001,0)" xlink:href="#ak"/><use transform="matrix(0.05,0,0,0.05,128.85000000000002,0)" xlink:href="#ai"/><use transform="matrix(0.05,0,0,0.05,132.8,0)" xlink:href="#ag"/><use transform="matrix(0.05,0,0,0.05,142.8,0)" xlink:href="#ad"/></g><g id="z"><use transform="matrix(0.05,0,0,0.05,0,0)" xlink:href="#af"/><use transform="matrix(0.05,0,0,0.05,9,0)" xlink:href="#al"/><use transform="matrix(0.05,0,0,0.05,19,0)" xlink:href="#am"/><use transform="matrix(0.05,0,0,0.05,29,0)" xlink:href="#ah"/><use transform="matrix(0.05,0,0,0.05,39,0)" xlink:href="#Y"/><use transform="matrix(0.05,0,0,0.05,49,0)" xlink:href="#Z"/></g><path d="M24-231v-30h32v30H24zM-9 49c24 4 33-6 33-30v-209h32V24c2 40-23 58-65 49V49" id="aA"/><g id="A"><use transform="matrix(0.05,0,0,0.05,0,0)" xlink:href="#ag"/><use transform="matrix(0.05,0,0,0.05,10,0)" xlink:href="#V"/><use transform="matrix(0.05,0,0,0.05,20,0)" xlink:href="#aA"/><use transform="matrix(0.05,0,0,0.05,23.95,0)" xlink:href="#Y"/><use transform="matrix(0.05,0,0,0.05,33.95,0)" xlink:href="#az"/><use transform="matrix(0.05,0,0,0.05,42.95,0)" xlink:href="#ak"/></g><g id="B"><use transform="matrix(0.05,0,0,0.05,0,0)" xlink:href="#ag"/><use transform="matrix(0.05,0,0,0.05,10,0)" xlink:href="#V"/><use transform="matrix(0.05,0,0,0.05,20,0)" xlink:href="#aA"/><use transform="matrix(0.05,0,0,0.05,23.95,0)" xlink:href="#Y"/><use transform="matrix(0.05,0,0,0.05,33.95,0)" xlink:href="#az"/><use transform="matrix(0.05,0,0,0.05,42.95,0)" xlink:href="#ak"/></g><g id="C"><use transform="matrix(0.05,0,0,0.05,0,0)" xlink:href="#af"/><use transform="matrix(0.05,0,0,0.05,9,0)" xlink:href="#ag"/><use transform="matrix(0.05,0,0,0.05,19,0)" xlink:href="#W"/><use transform="matrix(0.05,0,0,0.05,29,0)" xlink:href="#Z"/><use transform="matrix(0.05,0,0,0.05,34.95,0)" xlink:href="#az"/><use transform="matrix(0.05,0,0,0.05,43.95,0)" xlink:href="#Y"/></g><path d="M185-189c-5-48-123-54-124 2 14 75 158 14 163 119 3 78-121 87-175 55-17-10-28-26-33-46l33-7c5 56 141 63 141-1 0-78-155-14-162-118-5-82 145-84 179-34 5 7 8 16 11 25" id="aB"/><g id="D"><use transform="matrix(0.05,0,0,0.05,0,0)" xlink:href="#aa"/><use transform="matrix(0.05,0,0,0.05,10,0)" xlink:href="#ab"/><use transform="matrix(0.05,0,0,0.05,13.949999999999998,0)" xlink:href="#aB"/><use transform="matrix(0.05,0,0,0.05,25.950000000000003,0)" xlink:href="#al"/><use transform="matrix(0.05,0,0,0.05,35.95,0)" xlink:href="#am"/><use transform="matrix(0.05,0,0,0.05,45.95,0)" xlink:href="#ah"/><use transform="matrix(0.05,0,0,0.05,55.95,0)" xlink:href="#Y"/><use transform="matrix(0.05,0,0,0.05,65.95,0)" xlink:href="#Z"/><use transform="matrix(0.05,0,0,0.05,71.9,0)" xlink:href="#aB"/><use transform="matrix(0.05,0,0,0.05,83.9,0)" xlink:href="#ag"/><use transform="matrix(0.05,0,0,0.05,93.9,0)" xlink:href="#W"/><use transform="matrix(0.05,0,0,0.05,103.9,0)" xlink:href="#Z"/><use transform="matrix(0.05,0,0,0.05,109.85000000000001,0)" xlink:href="#az"/><use transform="matrix(0.05,0,0,0.05,118.85000000000001,0)" xlink:href="#Y"/></g><g id="E"><use transform="matrix(0.05,0,0,0.05,0,0)" xlink:href="#az"/><use transform="matrix(0.05,0,0,0.05,9,0)" xlink:href="#ag"/><use transform="matrix(0.05,0,0,0.05,19,0)" xlink:href="#ax"/><use transform="matrix(0.05,0,0,0.05,33.95,0)" xlink:href="#au"/><use transform="matrix(0.05,0,0,0.05,43.95,0)" xlink:href="#ai"/><use transform="matrix(0.05,0,0,0.05,47.900000000000006,0)" xlink:href="#ab"/><use transform="matrix(0.05,0,0,0.05,51.85,0)" xlink:href="#Y"/><use transform="matrix(0.05,0,0,0.05,61.85,0)" xlink:href="#ah"/></g><g id="F"><use transform="matrix(0.05,0,0,0.05,0,0)" xlink:href="#af"/><use transform="matrix(0.05,0,0,0.05,9,0)" xlink:href="#al"/><use transform="matrix(0.05,0,0,0.05,19,0)" xlink:href="#am"/><use transform="matrix(0.05,0,0,0.05,29,0)" xlink:href="#ah"/><use transform="matrix(0.05,0,0,0.05,39,0)" xlink:href="#Y"/><use transform="matrix(0.05,0,0,0.05,49,0)" xlink:href="#Z"/></g><g id="G"><use transform="matrix(0.05,0,0,0.05,0,0)" xlink:href="#W"/><use transform="matrix(0.05,0,0,0.05,10,0)" xlink:href="#ad"/><use transform="matrix(0.05,0,0,0.05,20,0)" xlink:href="#ab"/><use transform="matrix(0.05,0,0,0.05,23.95,0)" xlink:href="#ai"/><use transform="matrix(0.05,0,0,0.05,27.899999999999995,0)" xlink:href="#ad"/><use transform="matrix(0.05,0,0,0.05,37.9,0)" xlink:href="#aw"/><use transform="matrix(0.05,0,0,0.05,46.9,0)" xlink:href="#Y"/><use transform="matrix(0.05,0,0,0.05,56.900000000000006,0)" xlink:href="#ah"/></g><g id="H"><use transform="matrix(0.05,0,0,0.05,0,0)" xlink:href="#au"/><use transform="matrix(0.05,0,0,0.05,10,0)" xlink:href="#Z"/><use transform="matrix(0.05,0,0,0.05,15.949999999999998,0)" xlink:href="#ag"/><use transform="matrix(0.05,0,0,0.05,25.950000000000003,0)" xlink:href="#aa"/><use transform="matrix(0.05,0,0,0.05,35.95,0)" xlink:href="#Z"/><use transform="matrix(0.05,0,0,0.05,41.900000000000006,0)" xlink:href="#am"/><use transform="matrix(0.05,0,0,0.05,51.900000000000006,0)" xlink:href="#ax"/></g><g id="I"><use transform="matrix(0.05,0,0,0.05,0,0)" xlink:href="#af"/><use transform="matrix(0.05,0,0,0.05,9,0)" xlink:href="#al"/><use transform="matrix(0.05,0,0,0.05,19,0)" xlink:href="#am"/><use transform="matrix(0.05,0,0,0.05,29,0)" xlink:href="#ah"/><use transform="matrix(0.05,0,0,0.05,39,0)" xlink:href="#Y"/><use transform="matrix(0.05,0,0,0.05,49,0)" xlink:href="#Z"/><use transform="matrix(0.05,0,0,0.05,54.95,0)" xlink:href="#af"/></g><g id="J"><use transform="matrix(0.05,0,0,0.05,0,0)" xlink:href="#am"/><use transform="matrix(0.05,0,0,0.05,10,0)" xlink:href="#ak"/><use transform="matrix(0.05,0,0,0.05,15,0)" xlink:href="#ak"/><use transform="matrix(0.05,0,0,0.05,20,0)" xlink:href="#am"/><use transform="matrix(0.05,0,0,0.05,30,0)" xlink:href="#az"/><use transform="matrix(0.05,0,0,0.05,39,0)" xlink:href="#al"/><use transform="matrix(0.05,0,0,0.05,49,0)" xlink:href="#Y"/><use transform="matrix(0.05,0,0,0.05,59,0)" xlink:href="#ah"/></g><path d="M212-179c-10-28-35-45-73-45-59 0-87 40-87 99 0 60 29 101 89 101 43 0 62-24 78-52l27 14C228-24 195 4 139 4 59 4 22-46 18-125c-6-104 99-153 187-111 19 9 31 26 39 46" id="aC"/><g id="K"><use transform="matrix(0.05,0,0,0.05,0,0)" xlink:href="#aa"/><use transform="matrix(0.05,0,0,0.05,10,0)" xlink:href="#ab"/><use transform="matrix(0.05,0,0,0.05,13.949999999999998,0)" xlink:href="#aC"/><use transform="matrix(0.05,0,0,0.05,26.899999999999995,0)" xlink:href="#ag"/><use transform="matrix(0.05,0,0,0.05,36.9,0)" xlink:href="#ax"/><use transform="matrix(0.05,0,0,0.05,51.85,0)" xlink:href="#au"/><use transform="matrix(0.05,0,0,0.05,61.85,0)" xlink:href="#ai"/><use transform="matrix(0.05,0,0,0.05,65.8,0)" xlink:href="#ab"/><use transform="matrix(0.05,0,0,0.05,69.75,0)" xlink:href="#Y"/><use transform="matrix(0.05,0,0,0.05,79.75,0)" xlink:href="#aB"/><use transform="matrix(0.05,0,0,0.05,91.75,0)" xlink:href="#al"/><use transform="matrix(0.05,0,0,0.05,101.75,0)" xlink:href="#am"/><use transform="matrix(0.05,0,0,0.05,111.75,0)" xlink:href="#ah"/><use transform="matrix(0.05,0,0,0.05,121.75,0)" xlink:href="#Y"/><use transform="matrix(0.05,0,0,0.05,131.75,0)" xlink:href="#Z"/></g><g id="L"><use transform="matrix(0.05,0,0,0.05,0,0)" xlink:href="#aa"/><use transform="matrix(0.05,0,0,0.05,10,0)" xlink:href="#ab"/><use transform="matrix(0.05,0,0,0.05,13.949999999999998,0)" xlink:href="#as"/><use transform="matrix(0.05,0,0,0.05,25.950000000000003,0)" xlink:href="#ak"/><use transform="matrix(0.05,0,0,0.05,30.950000000000003,0)" xlink:href="#ak"/><use transform="matrix(0.05,0,0,0.05,35.95,0)" xlink:href="#am"/><use transform="matrix(0.05,0,0,0.05,45.95,0)" xlink:href="#az"/><use transform="matrix(0.05,0,0,0.05,54.95,0)" xlink:href="#al"/><use transform="matrix(0.05,0,0,0.05,64.95,0)" xlink:href="#aB"/><use transform="matrix(0.05,0,0,0.05,76.95,0)" xlink:href="#al"/><use transform="matrix(0.05,0,0,0.05,86.95,0)" xlink:href="#am"/><use transform="matrix(0.05,0,0,0.05,96.95,0)" xlink:href="#ah"/><use transform="matrix(0.05,0,0,0.05,106.95,0)" xlink:href="#Y"/><use transform="matrix(0.05,0,0,0.05,116.95,0)" xlink:href="#Z"/></g><g id="M"><use transform="matrix(0.05,0,0,0.05,0,0)" xlink:href="#aa"/><use transform="matrix(0.05,0,0,0.05,10,0)" xlink:href="#ab"/><use transform="matrix(0.05,0,0,0.05,13.949999999999998,0)" xlink:href="#ay"/><use transform="matrix(0.05,0,0,0.05,23.95,0)" xlink:href="#ai"/><use transform="matrix(0.05,0,0,0.05,27.899999999999995,0)" xlink:href="#ad"/><use transform="matrix(0.05,0,0,0.05,37.9,0)" xlink:href="#aw"/><use transform="matrix(0.05,0,0,0.05,46.9,0)" xlink:href="#at"/><use transform="matrix(0.05,0,0,0.05,58.900000000000006,0)" xlink:href="#Z"/><use transform="matrix(0.05,0,0,0.05,64.85,0)" xlink:href="#ag"/><use transform="matrix(0.05,0,0,0.05,74.85,0)" xlink:href="#aa"/><use transform="matrix(0.05,0,0,0.05,84.85,0)" xlink:href="#Z"/><use transform="matrix(0.05,0,0,0.05,90.8,0)" xlink:href="#am"/><use transform="matrix(0.05,0,0,0.05,100.8,0)" xlink:href="#ax"/></g><g id="N"><use transform="matrix(0.05,0,0,0.05,0,0)" xlink:href="#W"/><use transform="matrix(0.05,0,0,0.05,10,0)" xlink:href="#ad"/><use transform="matrix(0.05,0,0,0.05,20,0)" xlink:href="#ab"/><use transform="matrix(0.05,0,0,0.05,23.95,0)" xlink:href="#ai"/><use transform="matrix(0.05,0,0,0.05,27.899999999999995,0)" xlink:href="#ad"/><use transform="matrix(0.05,0,0,0.05,37.9,0)" xlink:href="#aw"/><use transform="matrix(0.05,0,0,0.05,46.9,0)" xlink:href="#Y"/><use transform="matrix(0.05,0,0,0.05,56.900000000000006,0)" xlink:href="#ah"/></g><g id="O"><use transform="matrix(0.05,0,0,0.05,0,0)" xlink:href="#aa"/><use transform="matrix(0.05,0,0,0.05,10,0)" xlink:href="#ab"/><use transform="matrix(0.05,0,0,0.05,13.949999999999998,0)" xlink:href="#aC"/><use transform="matrix(0.05,0,0,0.05,26.899999999999995,0)" xlink:href="#Z"/><use transform="matrix(0.05,0,0,0.05,32.85,0)" xlink:href="#Y"/><use transform="matrix(0.05,0,0,0.05,42.85,0)" xlink:href="#am"/><use transform="matrix(0.05,0,0,0.05,52.85,0)" xlink:href="#ak"/><use transform="matrix(0.05,0,0,0.05,57.85,0)" xlink:href="#Y"/><use transform="matrix(0.05,0,0,0.05,67.85,0)" xlink:href="#at"/><use transform="matrix(0.05,0,0,0.05,79.85,0)" xlink:href="#Z"/><use transform="matrix(0.05,0,0,0.05,85.8,0)" xlink:href="#ag"/><use transform="matrix(0.05,0,0,0.05,95.8,0)" xlink:href="#aa"/><use transform="matrix(0.05,0,0,0.05,105.80000000000001,0)" xlink:href="#Z"/><use transform="matrix(0.05,0,0,0.05,111.75,0)" xlink:href="#am"/><use transform="matrix(0.05,0,0,0.05,121.75,0)" xlink:href="#ax"/></g><g id="P"><use transform="matrix(0.05,0,0,0.05,0,0)" xlink:href="#aa"/><use transform="matrix(0.05,0,0,0.05,10,0)" xlink:href="#ab"/><use transform="matrix(0.05,0,0,0.05,13.949999999999998,0)" xlink:href="#an"/><use transform="matrix(0.05,0,0,0.05,26.899999999999995,0)" xlink:href="#Y"/><use transform="matrix(0.05,0,0,0.05,36.9,0)" xlink:href="#ab"/><use transform="matrix(0.05,0,0,0.05,40.85,0)" xlink:href="#Y"/><use transform="matrix(0.05,0,0,0.05,50.85,0)" xlink:href="#ak"/><use transform="matrix(0.05,0,0,0.05,55.85,0)" xlink:href="#Y"/><use transform="matrix(0.05,0,0,0.05,65.85,0)" xlink:href="#aB"/><use transform="matrix(0.05,0,0,0.05,77.85,0)" xlink:href="#al"/><use transform="matrix(0.05,0,0,0.05,87.85,0)" xlink:href="#am"/><use transform="matrix(0.05,0,0,0.05,97.85,0)" xlink:href="#ah"/><use transform="matrix(0.05,0,0,0.05,107.84999999999998,0)" xlink:href="#Y"/><use transform="matrix(0.05,0,0,0.05,117.84999999999998,0)" xlink:href="#Z"/></g><g id="Q"><use transform="matrix(0.05,0,0,0.05,0,0)" xlink:href="#aa"/><use transform="matrix(0.05,0,0,0.05,10,0)" xlink:href="#ab"/><use transform="matrix(0.05,0,0,0.05,13.949999999999998,0)" xlink:href="#aC"/><use transform="matrix(0.05,0,0,0.05,26.899999999999995,0)" xlink:href="#Z"/><use transform="matrix(0.05,0,0,0.05,32.85,0)" xlink:href="#Y"/><use transform="matrix(0.05,0,0,0.05,42.85,0)" xlink:href="#am"/><use transform="matrix(0.05,0,0,0.05,52.85,0)" xlink:href="#ak"/><use transform="matrix(0.05,0,0,0.05,57.85,0)" xlink:href="#Y"/><use transform="matrix(0.05,0,0,0.05,67.85,0)" xlink:href="#aB"/><use transform="matrix(0.05,0,0,0.05,79.85,0)" xlink:href="#al"/><use transform="matrix(0.05,0,0,0.05,89.85,0)" xlink:href="#am"/><use transform="matrix(0.05,0,0,0.05,99.85,0)" xlink:href="#ah"/><use transform="matrix(0.05,0,0,0.05,109.84999999999998,0)" xlink:href="#Y"/><use transform="matrix(0.05,0,0,0.05,119.84999999999998,0)" xlink:href="#Z"/></g><path d="M30 0v-248h187v28H63v79h144v27H63v87h162V0H30" id="aD"/><g id="R"><use transform="matrix(0.05,0,0,0.05,0,0)" xlink:href="#aa"/><use transform="matrix(0.05,0,0,0.05,10,0)" xlink:href="#ab"/><use transform="matrix(0.05,0,0,0.05,13.949999999999998,0)" xlink:href="#aD"/><use transform="matrix(0.05,0,0,0.05,25.950000000000003,0)" xlink:href="#ad"/><use transform="matrix(0.05,0,0,0.05,35.95,0)" xlink:href="#am"/><use transform="matrix(0.05,0,0,0.05,45.95,0)" xlink:href="#V"/><use transform="matrix(0.05,0,0,0.05,55.95,0)" xlink:href="#ab"/><use transform="matrix(0.05,0,0,0.05,59.900000000000006,0)" xlink:href="#Y"/><use transform="matrix(0.05,0,0,0.05,69.9,0)" xlink:href="#ar"/><use transform="matrix(0.05,0,0,0.05,80.9,0)" xlink:href="#Y"/><use transform="matrix(0.05,0,0,0.05,90.9,0)" xlink:href="#Z"/><use transform="matrix(0.05,0,0,0.05,96.85000000000001,0)" xlink:href="#ak"/><use transform="matrix(0.05,0,0,0.05,101.85000000000001,0)" xlink:href="#Y"/><use transform="matrix(0.05,0,0,0.05,111.85000000000001,0)" xlink:href="#ap"/><use transform="matrix(0.05,0,0,0.05,120.85000000000001,0)" xlink:href="#as"/><use transform="matrix(0.05,0,0,0.05,132.85000000000002,0)" xlink:href="#ak"/><use transform="matrix(0.05,0,0,0.05,137.85000000000002,0)" xlink:href="#ak"/><use transform="matrix(0.05,0,0,0.05,142.85000000000002,0)" xlink:href="#Z"/><use transform="matrix(0.05,0,0,0.05,148.8,0)" xlink:href="#ai"/><use transform="matrix(0.05,0,0,0.05,152.75,0)" xlink:href="#V"/><use transform="matrix(0.05,0,0,0.05,162.75,0)" xlink:href="#as"/><use transform="matrix(0.05,0,0,0.05,174.75,0)" xlink:href="#Z"/><use transform="matrix(0.05,0,0,0.05,180.7,0)" xlink:href="#Z"/><use transform="matrix(0.05,0,0,0.05,186.64999999999998,0)" xlink:href="#am"/><use transform="matrix(0.05,0,0,0.05,196.64999999999998,0)" xlink:href="#aq"/></g><g id="T"><use transform="matrix(0.05,0,0,0.05,0,0)" xlink:href="#aa"/><use transform="matrix(0.05,0,0,0.05,10,0)" xlink:href="#ab"/><use transform="matrix(0.05,0,0,0.05,13.949999999999998,0)" xlink:href="#an"/><use transform="matrix(0.05,0,0,0.05,26.899999999999995,0)" xlink:href="#Y"/><use transform="matrix(0.05,0,0,0.05,36.9,0)" xlink:href="#ab"/><use transform="matrix(0.05,0,0,0.05,40.85,0)" xlink:href="#Y"/><use transform="matrix(0.05,0,0,0.05,50.85,0)" xlink:href="#ak"/><use transform="matrix(0.05,0,0,0.05,55.85,0)" xlink:href="#Y"/><use transform="matrix(0.05,0,0,0.05,65.85,0)" xlink:href="#ae"/><use transform="matrix(0.05,0,0,0.05,77.85,0)" xlink:href="#W"/><use transform="matrix(0.05,0,0,0.05,87.85,0)" xlink:href="#X"/><use transform="matrix(0.05,0,0,0.05,92.5,0)" xlink:href="#X"/><use transform="matrix(0.05,0,0,0.05,97.5,0)" xlink:href="#Y"/><use transform="matrix(0.05,0,0,0.05,107.5,0)" xlink:href="#Z"/><use transform="matrix(0.05,0,0,0.05,113.45,0)" xlink:href="#af"/></g><g id="U"><use transform="matrix(0.05,0,0,0.05,0,0)" xlink:href="#aa"/><use transform="matrix(0.05,0,0,0.05,10,0)" xlink:href="#ab"/><use transform="matrix(0.05,0,0,0.05,13.949999999999998,0)" xlink:href="#an"/><use transform="matrix(0.05,0,0,0.05,26.899999999999995,0)" xlink:href="#Y"/><use transform="matrix(0.05,0,0,0.05,36.9,0)" xlink:href="#ab"/><use transform="matrix(0.05,0,0,0.05,40.85,0)" xlink:href="#Y"/><use transform="matrix(0.05,0,0,0.05,50.85,0)" xlink:href="#ak"/><use transform="matrix(0.05,0,0,0.05,55.85,0)" xlink:href="#Y"/><use transform="matrix(0.05,0,0,0.05,65.85,0)" xlink:href="#at"/><use transform="matrix(0.05,0,0,0.05,77.85,0)" xlink:href="#Z"/><use transform="matrix(0.05,0,0,0.05,83.8,0)" xlink:href="#ag"/><use transform="matrix(0.05,0,0,0.05,93.8,0)" xlink:href="#aa"/><use transform="matrix(0.05,0,0,0.05,103.80000000000001,0)" xlink:href="#Z"/><use transform="matrix(0.05,0,0,0.05,109.75,0)" xlink:href="#am"/><use transform="matrix(0.05,0,0,0.05,119.75,0)" xlink:href="#ax"/></g></defs></g></svg>